<?xml version="1.0" encoding="UTF-8" standalone="no"?>
<!-- Created with Inkscape (http://www.inkscape.org/) -->

<svg
   width="166.01988mm"
   height="300mm"
   viewBox="0 0 166.01988 300"
   version="1.1"
   id="svg5"
   inkscape:version="1.2.2 (b0a8486541, 2022-12-01)"
   sodipodi:docname="KuduLogo.svg"
   xmlns:inkscape="http://www.inkscape.org/namespaces/inkscape"
   xmlns:sodipodi="http://sodipodi.sourceforge.net/DTD/sodipodi-0.dtd"
   xmlns="http://www.w3.org/2000/svg"
   xmlns:svg="http://www.w3.org/2000/svg">
  <sodipodi:namedview
     id="namedview7"
     pagecolor="#505050"
     bordercolor="#eeeeee"
     borderopacity="1"
     inkscape:showpageshadow="0"
     inkscape:pageopacity="0"
     inkscape:pagecheckerboard="0"
     inkscape:deskcolor="#505050"
     inkscape:document-units="mm"
     showgrid="false"
     inkscape:zoom="1.1387033"
     inkscape:cx="198.03226"
     inkscape:cy="871.60541"
     inkscape:window-width="1920"
     inkscape:window-height="1044"
     inkscape:window-x="0"
     inkscape:window-y="0"
     inkscape:window-maximized="0"
     inkscape:current-layer="layer1" />
  <defs
     id="defs2">
    <rect
       x="247.9818"
       y="256.62088"
       width="136.15569"
       height="136.68919"
       id="rect227" />
  </defs>
  <g
     inkscape:label="Layer 1"
     inkscape:groupmode="layer"
     id="layer1">
    <g
       id="g187"
       transform="translate(0,215.31788)">
      <path
         style="fill:#000000;stroke-width:0.408982;stroke-opacity:0"
         id="path236-7-5"
         d="m 104.44399,19.653 c -0.0726,0.338 -0.15174,0.6738 -0.21771,1.01396 -0.10346,0.53325 -0.15182,1.08564 -0.29048,1.60577 -0.65819,2.46918 -1.54689,4.47203 -2.4,6.88185 -0.55157,1.55811 -1.05677,3.14219 -1.596471,4.70704 -0.57817,1.67631 -1.17139,3.34414 -1.75708,5.0162 -2.66337,7.52949 -5.9199,14.6727 -9.07565,21.87467 -0.15648,0.54102 -0.82404,1.7591 0.0925,2.18317 0.8533,0.3948 2.67868,-0.63951 3.24599,-0.90898 1.42675,-0.67767 4.75286,-2.41967 6.00767,-3.06996 5.867731,-3.12403 11.491461,-6.81848 16.876071,-11.1471 2.8644,-2.30263 6.08832,-5.61093 8.38952,-8.80236 1.09403,-1.51728 1.98237,-3.25552 2.97357,-4.88328 0.56522,-1.59274 1.33247,-3.0928 1.69563,-4.77824 0.54697,-2.53849 0.54833,-5.91565 -0.89719,-8.09669 -0.76944,-1.1609 -1.78765,-2.31927 -2.96716,-2.54918 -2.09962,-0.40929 -4.23077,0.48915 -6.34616,0.73372 0,0 -0.29464,0.25483 -0.29464,0.25483 v 0 c 1.76676,7.94693 -0.63693,-0.10427 3.21671,6.12205 1.25461,2.02704 1.44862,4.75399 1.08029,7.18454 -0.22518,1.48601 -0.79743,2.85156 -1.19615,4.27735 -0.74896,1.45052 -1.38387,3.00762 -2.24689,4.35158 -2.38444,3.71313 -4.2584,5.25402 -7.3025,8.09375 -0.37657,0.35129 -0.75061,0.71663 -1.16629,0.98717 -3.49597,2.27505 -4.47772,2.65736 -7.96762,4.41513 -2.1763,0.96235 -2.919101,1.3326 -4.990501,2.1143 -0.46348,0.17489 -0.93748,0.30283 -1.3998,0.48256 -0.23341,0.0907 -0.45648,0.22 -0.68532,0.32796 -0.11524,0.0544 -0.25566,0.26388 -0.34679,0.15888 -0.14808,-0.17039 -0.1033,-0.491 -0.15486,-0.73649 0.1155,-0.54043 0.20545,-1.09075 0.34658,-1.62123 0.39819,-1.49652 1.32556,-4.23576 1.76486,-5.55806 1.47565,-4.44172 2.98529,-8.86498 4.533791,-13.26639 0.70783,-2.02075 2.67893,-7.56153 3.32192,-9.72343 1.08965,-3.66362 0.72218,-3.21213 1.59805,-6.43507 0.16407,-0.60376 0.38687,-1.17922 0.56616,-1.77592 0.10508,-0.34982 0.19115,-0.70845 0.28674,-1.06268 0,0 -2.69681,1.62848 -2.69681,1.62848 z" />
      <path
         style="fill:#000000;stroke-width:0.264583;stroke-opacity:0"
         id="path1131"
         d="m 27.136177,46.18444 c 0.225878,0.009 0.452549,0.0475 0.677627,0.0266 0.551506,-0.0513 1.094102,-0.17503 1.643883,-0.24231 1.985661,-0.24298 3.370424,-0.38494 5.408017,-0.33706 2.632398,0.0619 2.999483,0.23035 5.515962,0.69845 0.707771,0.26099 1.497552,0.3617 2.123315,0.78298 1.174793,0.79091 1.38611,1.9351 1.407176,3.23321 0.02387,1.47133 -0.446355,3.66136 -0.892852,4.98728 -0.363707,1.08006 -0.873974,2.10509 -1.310963,3.15764 -2.665235,5.71039 -5.894546,11.13458 -8.659537,16.79513 -0.615111,1.25927 -1.280128,2.50229 -1.7525,3.82176 -0.334314,0.93383 -0.43657,1.93511 -0.654854,2.90266 0.236141,0.62695 0.227846,1.41409 0.708425,1.88086 1.495877,1.4529 4.574394,0.51368 5.983319,0.22577 1.81134,-0.37014 3.593057,-0.87433 5.378302,-1.35481 6.740739,-1.81422 6.217303,-1.76812 13.143774,-4.12402 9.282658,-3.4186 4.02109,-1.39129 13.16495,-5.11617 4.33996,-1.76794 9.363358,-4.23176 14.193358,-4.18122 0.86411,0.009 1.70421,0.28761 2.55632,0.43142 2.13703,0.73401 3.84148,2.19054 5.66938,3.44935 0.65034,0.44787 1.27089,0.95338 1.98045,1.29987 0.83308,0.40682 1.69481,0.83976 2.61596,0.94468 1.39632,0.15904 2.8085,-0.11125 4.212761,-0.16688 3.71419,-0.73162 5.96528,-0.98924 9.52446,-2.47647 2.15922,-0.90224 4.19738,-2.07051 6.29607,-3.10576 0,0 1.96734,-1.55562 1.96734,-1.55562 v 0 c -2.04424,0.6791 -6.23107,2.12524 -8.27295,2.56588 -1.28201,0.27666 -2.6003,0.34462 -3.90045,0.51692 -0.98816,-0.12303 -2.00283,-0.11057 -2.96448,-0.36908 -0.78054,-0.20982 -1.49392,-0.62613 -2.20013,-1.01924 -2.221871,-1.23682 -1.693031,-1.33206 -3.876261,-2.65797 -2.46651,-1.49794 -2.1725,-1.14896 -5.15681,-1.69713 -1.27838,0.11595 -2.57322,0.1127 -3.83512,0.34784 -1.62835,0.30343 -3.22503,0.76868 -4.80612,1.26237 -5.15825,1.61065 -6.569258,2.45766 -11.700078,4.59679 -2.14519,0.89437 -4.287601,1.79717 -6.456838,2.63153 -2.148046,0.82621 -4.328292,1.56614 -6.492436,2.34921 -4.916233,1.3802 -6.345624,1.95756 -11.19963,2.7028 -1.314778,0.20186 -2.642198,0.33265 -3.970887,0.39565 -0.845307,0.0401 -3.098692,0.0156 -4.069467,-0.46294 -0.474678,-0.23398 -0.822563,-0.66607 -1.233847,-0.99911 -0.194223,-0.67859 -0.600445,-1.33015 -0.582673,-2.03577 0.05377,-2.1349 1.580837,-5.62711 2.363867,-7.36574 0.682897,-1.51631 1.424424,-3.00696 2.208347,-4.47358 0.07575,-0.14172 4.523552,-7.83159 4.737076,-8.20087 0.58664,-1.14392 1.21435,-2.26769 1.759924,-3.43176 0.672033,-1.43389 2.059199,-4.06503 1.608653,-5.90307 -0.164293,-0.67024 -0.725596,-1.21564 -1.278996,-1.62789 -1.230463,-0.91663 -3.319531,-1.18776 -4.72549,-1.48852 -0.923197,-0.13932 -1.844677,-0.29052 -2.769589,-0.41796 -3.533241,-0.48683 -1.847522,-0.17552 -5.141809,-0.67679 -0.5802,-0.0883 -1.157288,-0.19592 -1.735932,-0.29388 -0.324061,-0.0703 -0.644596,-0.1594 -0.972185,-0.21077 -0.137094,-0.0215 -0.277497,-0.005 -0.416245,-0.007 0,0 -5.819587,3.99269 -5.819587,3.99269 z" />
      <path
         style="fill:#000000;stroke-width:0.264583;stroke-opacity:0"
         id="path1371"
         d="m 32.375123,38.92955 c 0.100944,-0.0172 0.200435,-0.051 0.302829,-0.0515 0.568788,-0.003 0.370279,0.10378 0.994857,0.22991 0.311769,0.063 0.631613,0.0763 0.946203,0.12321 2.196613,0.3273 0.261218,0.12464 3.036406,0.3422 1.310933,0.10836 2.957938,0.28499 4.262797,0.21356 0.851932,-0.0466 1.722855,-0.069 2.540394,-0.31313 1.110464,-0.33158 2.180542,-0.81653 3.184083,-1.39617 8.615765,-4.97644 6.725034,-3.50641 11.509158,-8.2784 2.915341,-3.1544 3.148248,-3.32116 5.909942,-6.65677 3.745849,-4.5243 1.999988,-2.67695 5.885559,-7.18607 3.06137,-3.55266 2.95706,-3.33752 6.19145,-6.60836 -2.5785,1.56584 7.873998,-6.30268 6.208168,-4.392 -1.08865,1.24865 -3.13473,1.50355 -4.04456,2.88793 -0.41691,0.63437 1.5121,-0.23633 2.26962,-0.18722 2.4759,0.16053 3.55472,0.78518 5.87223,1.6713 2.07264,0.73085 3.77158,2.18286 5.74775,3.09306 1.94418,0.89546 4.78848,1.75227 6.893011,2.14244 3.12945,0.58018 3.71433,0.40313 6.86143,0.32512 5.47556,-1.01699 2.53248,-0.24076 8.74985,-2.61121 0,0 4.27726,-3.29654 4.27726,-3.29654 v 0 c -4.0694,0.54951 -1.95606,0.22374 -6.33683,0.99798 -2.90612,0.20534 -4.01707,0.44066 -6.93458,0.0117 -1.15837,-0.17034 -2.3065,-0.43484 -3.42333,-0.78629 -3.22015,-1.01331 -6.068461,-2.8747 -9.053431,-4.39079 -1.43274,-0.69918 -4.02042,-2.13064 -5.69848,-2.31281 -0.92585,-0.10052 -1.92062,-0.0639 -2.77768,0.30044 -1.47447,0.62681 -8.863328,4.13802 -11.719158,6.50635 -0.88277,0.73209 -1.65573,1.58729 -2.48359,2.38093 -2.18801,2.52685 -3.18219,3.64313 -5.354987,6.29357 -0.958638,1.16937 -1.878822,2.36995 -2.839167,3.53792 -1.007493,1.22531 -2.032992,2.4358 -3.063951,3.64144 -3.393954,3.96899 -2.499278,2.92915 -6.125993,6.6791 -1.188845,1.01236 -2.803639,1.67465 -3.566536,3.03708 -0.444489,0.79379 3.26952,-1.58624 2.490764,-1.1159 -1.578764,0.95351 -3.449016,1.58964 -5.286172,1.77838 -1.32956,0.13658 -2.563394,-0.16067 -3.851439,-0.38681 -1.564703,-0.41703 -1.172231,-0.3426 -2.635808,-0.62827 -0.314703,-0.0614 -0.626523,-0.14796 -0.946142,-0.17353 -0.967351,-0.0774 -0.728549,0.0768 -1.505095,0.0338 -0.05624,-0.003 -0.107286,-0.0344 -0.160928,-0.0516 0,0 -6.325904,4.59604 -6.325904,4.59604 z" />
      <path
         style="fill:#000000;stroke-width:0.264583;stroke-opacity:0"
         id="path1600"
         d="m 58.096599,35.59955 c 1.192509,-0.70643 2.372709,-1.43651 3.581191,-2.11556 0.769834,-0.43258 1.526984,-0.89221 2.326812,-1.26644 0.6253,-0.29256 1.266348,-0.57152 1.938462,-0.72919 0.415729,-0.0975 0.853855,-0.0173 1.280784,-0.026 0.156181,0.19733 0.398706,0.35021 0.468543,0.59198 0.0769,0.26623 -0.02863,0.55377 -0.05799,0.82932 -0.04101,0.38487 -0.05756,0.77592 -0.15302,1.15101 -0.531868,2.08971 -1.728652,3.956 -2.772878,5.81222 -0.5667,0.97174 -1.990135,3.381 -2.506779,4.39155 -0.329485,0.64447 -0.669819,1.28923 -0.905737,1.97351 -0.342188,0.99253 -0.747493,2.15102 0.213299,3.00411 0.367866,0.32663 0.92193,0.34364 1.382898,0.51546 0.591666,-0.0485 1.1988,-0.002 1.775002,-0.14537 0.746964,-0.18519 1.479963,-0.459 2.154793,-0.82894 8.308118,-4.5545 5.667468,-2.99841 10.164808,-6.4548 3.064142,-2.35492 2.146772,-1.66617 5.461302,-3.78665 -0.49054,0.32433 -2.05378,1.05596 -1.4716,0.97299 0.94959,-0.13532 1.75256,-0.78119 2.64218,-1.13981 0.91779,-0.36998 1.84864,-0.70693 2.77853,-1.04535 2.99008,-1.0882 2.53569,-0.8118 5.6131,-2.08992 1.09116,-0.45318 2.16529,-0.94629 3.24794,-1.41943 0,0 3.54952,-2.78028 3.54952,-2.78028 v 0 c -0.76636,0.22591 -1.54018,0.42791 -2.29908,0.67773 -1.15605,0.38055 -4.43776,1.61259 -5.53778,2.02856 -1.85922,0.70305 -4.14288,1.52507 -5.89598,2.46514 -2.44,1.30839 -4.80963,2.74397 -7.21444,4.11595 -6.346692,4.07889 0.35971,-0.30662 -5.785912,3.94176 -1.01077,0.69873 -4.176776,1.4994 -3.072076,2.03748 1.1592,0.56463 2.316926,-1.15314 3.375116,-1.88988 0.48176,-0.3354 -1.06398,0.50813 -1.62735,0.67305 -0.437066,0.12795 -0.901106,0.13269 -1.351666,0.19904 -0.3672,-0.0529 -0.74729,-0.0487 -1.1016,-0.15863 -0.684336,-0.21241 -1.436565,-0.66417 -1.603909,-1.45172 -0.10581,-0.49796 0.0127,-1.02424 0.115258,-1.52288 0.357658,-1.73902 0.842946,-2.35632 1.689151,-3.96889 0.44273,-0.74275 0.88325,-1.48682 1.3282,-2.22824 0.44398,-0.7398 0.908716,-1.46732 1.338576,-2.21541 0.37264,-0.64851 0.77663,-1.28447 1.06824,-1.97321 0.30171,-0.71258 1.0299,-2.15411 -0.25138,-2.64369 -0.52647,-0.20116 -1.1269,0.0252 -1.690346,0.0378 -0.75213,0.23309 -1.52237,0.41424 -2.256402,0.69926 -0.848437,0.32944 -1.653487,0.76125 -2.480977,1.14025 -1.373412,0.62903 -2.74171,1.26653 -4.101168,1.92475 0,0 -3.355631,2.69738 -3.355631,2.69738 z" />
      <path
         style="fill:#000000;stroke-width:0.264583;stroke-opacity:0"
         id="path1600-5"
         d="m 125.30873,42.61215 c 1.19251,-0.70643 2.37271,-1.43651 3.58119,-2.11556 0.76984,-0.43258 1.52699,-0.89221 2.32681,-1.26644 0.6253,-0.29256 1.26635,-0.57152 1.93847,-0.72919 0.41573,-0.0975 0.85385,-0.0173 1.28078,-0.026 0.15618,0.19733 0.39871,0.35021 0.46854,0.59198 0.0769,0.26623 -0.0286,0.55377 -0.058,0.82932 -0.041,0.38487 -0.0576,0.77592 -0.15302,1.15101 -0.53186,2.08971 -1.72865,3.956 -2.77287,5.81222 -0.5667,0.97174 -1.99014,3.381 -2.50678,4.39155 -0.32949,0.64447 -0.66982,1.28923 -0.90574,1.97351 -0.34219,0.99253 -0.74749,2.15102 0.2133,3.00411 0.36786,0.32663 0.92193,0.34364 1.3829,0.51546 0.59166,-0.0485 1.1988,-0.002 1.775,-0.14537 0.74696,-0.18519 1.47996,-0.459 2.15479,-0.82894 8.30812,-4.5545 5.66747,-2.99841 10.16481,-6.4548 3.06414,-2.35492 2.14677,-1.66617 5.4613,-3.78665 -0.49054,0.32433 -2.05378,1.05596 -1.4716,0.97299 0.94959,-0.13532 1.75256,-0.78119 2.64218,-1.13981 0.91779,-0.36998 1.84864,-0.70693 2.77853,-1.04535 2.99008,-1.0882 2.53569,-0.8118 5.6131,-2.08992 1.09116,-0.45318 2.16529,-0.94629 3.24794,-1.41943 0,0 3.54952,-2.78028 3.54952,-2.78028 v 0 c -0.76636,0.22591 -1.54018,0.42791 -2.29908,0.67773 -1.15605,0.38055 -4.43776,1.61259 -5.53778,2.02856 -1.85922,0.70305 -4.14288,1.52507 -5.89598,2.46514 -2.44,1.30839 -4.80963,2.74397 -7.21444,4.11595 -6.34669,4.07889 0.35971,-0.30662 -5.78591,3.94176 -1.01077,0.69873 -4.17678,1.4994 -3.07208,2.03748 1.15921,0.56463 2.31693,-1.15314 3.37512,-1.88988 0.48176,-0.3354 -1.06398,0.50813 -1.62735,0.67305 -0.43707,0.12795 -0.90111,0.13269 -1.35166,0.19904 -0.3672,-0.0529 -0.74729,-0.0487 -1.1016,-0.15863 -0.68434,-0.21241 -1.43657,-0.66417 -1.60392,-1.45172 -0.1058,-0.49796 0.0127,-1.02424 0.11526,-1.52288 0.35766,-1.73902 0.84295,-2.35632 1.68915,-3.96889 0.44274,-0.74275 0.88325,-1.48682 1.3282,-2.22824 0.44398,-0.7398 0.90872,-1.46732 1.33859,-2.21541 0.37263,-0.64851 0.77662,-1.28447 1.06823,-1.97321 0.30171,-0.71258 1.0299,-2.15411 -0.25138,-2.64369 -0.52647,-0.20116 -1.1269,0.0252 -1.69035,0.0378 -0.75213,0.23309 -1.52237,0.41424 -2.2564,0.69926 -0.84844,0.32944 -1.65349,0.76125 -2.48098,1.14025 -1.37341,0.62903 -2.7417,1.26653 -4.10116,1.92475 0,0 -3.35563,2.69738 -3.35563,2.69738 z" />
      <path
         style="fill:#000000;stroke-width:0.264583;stroke-opacity:0"
         id="path1947"
         d="m 43.289075,3.04526 c -3.109108,2.8808 -5.306094,6.60248 -7.372119,10.25953 -1.184754,2.09712 -2.309863,4.22739 -3.464793,6.34109 -1.415825,2.59889 -2.854807,5.1853 -4.247478,7.79668 -1.666952,3.12568 -3.271459,6.28434 -4.931087,9.41391 C 17.976727,46.84483 12.494944,56.73765 7.370348,66.81704 5.913894,69.68169 4.527638,72.58149 3.106282,75.46372 2.070855,77.79964 1.035427,80.13556 0,82.47148 c 0,0 4.342085,-1.97108 4.342085,-1.97108 v 0 C 5.622237,78.05576 6.902388,75.61113 8.18254,73.1665 12.983894,63.64996 17.707527,54.08712 22.780727,44.71086 27.246068,36.45805 29.440152,32.698 34.335112,24.71897 36.020725,21.97134 37.768597,19.2624 39.485338,16.53411 40.994754,14.27155 42.50417,12.009 44.013587,9.74644 44.98991,8.33139 45.980994,6.92642 46.942556,5.5013 48.178327,3.66978 49.335778,1.78485 50.640973,0 c 0,0 -7.351898,3.04526 -7.351898,3.04526 z" />
    </g>
    <text
       xml:space="preserve"
       transform="scale(0.26458333)"
       id="text225"
       style="font-size:37.3333px;line-height:1.25;font-family:System-ui;-inkscape-font-specification:System-ui;white-space:pre;shape-inside:url(#rect227);display:inline" />
  </g>
</svg>
